<?xml version="1.0" encoding="utf-8"?>
<!-- Generator: Adobe Illustrator 23.0.0, SVG Export Plug-In . SVG Version: 6.00 Build 0)  -->
<svg version="1.1" id="Calque_1" xmlns="http://www.w3.org/2000/svg" xmlns:xlink="http://www.w3.org/1999/xlink" x="0px" y="0px"
	 viewBox="0 0 40 48" style="enable-background:new 0 0 40 48;" xml:space="preserve">
<style type="text/css">
	.st0{fill-rule:evenodd;clip-rule:evenodd;fill:#99C442;}
</style>
<title>BOOK</title>
<desc>Created with Sketch.</desc>
<g id="Website">
	<g id="Home" transform="translate(-1098.000000, -1441.000000)">
		<path id="BOOK" class="st0" d="M1135.2,1477h-32.4c-0.9,0-1.7,0.3-2.4,0.7v-31.9c0-1.3,1.1-2.4,2.4-2.4h32.4V1477z M1135.2,1481.8
			h-28.8v2.4h28.8v2.4h-32.4c-0.9,0-1.7-0.5-2.1-1.2c-0.2-0.3-0.3-0.7-0.3-1.2v-2.4c0-1.3,1.1-2.4,2.4-2.4h32.4V1481.8z
			 M1135.2,1441h2.4v2.4v33.6v2.4v7.2v2.4h-2.4h-32.4c-1.9,0-3.6-1.1-4.3-2.8c-0.3-0.6-0.5-1.3-0.5-2v0v-2.4v-36
			c0-2.7,2.2-4.8,4.8-4.8H1135.2z M1112.4,1456.6l6-3.6l6,3.6v7.2l-6,3.6l-6-3.6V1456.6z M1111.2,1465.9l6,3.6
			c0.8,0.5,1.7,0.5,2.5,0l6-3.6c0.7-0.4,1.2-1.2,1.2-2.1v-7.2c0-0.8-0.4-1.6-1.2-2.1l-6-3.6c-0.8-0.5-1.7-0.5-2.5,0l-6,3.6
			c-0.7,0.4-1.2,1.2-1.2,2.1v7.2C1110,1464.6,1110.4,1465.4,1111.2,1465.9z"/>
	</g>
</g>
</svg>
