<?xml version="1.0" encoding="utf-8"?>
<!-- Generator: Adobe Illustrator 23.0.0, SVG Export Plug-In . SVG Version: 6.00 Build 0)  -->
<svg version="1.1" id="Calque_1" xmlns="http://www.w3.org/2000/svg" xmlns:xlink="http://www.w3.org/1999/xlink" x="0px" y="0px"
	 viewBox="0 0 750 750" style="enable-background:new 0 0 750 750;" xml:space="preserve">
<path d="M251.3,599h-92.9V299.9h92.9V599z M204.8,259.1c-29.7,0-53.8-24.6-53.8-54.3s24.1-53.8,53.8-53.8s53.8,24.1,53.8,53.8
	S234.5,259.1,204.8,259.1z M599,599h-92.7V453.4c0-34.7-0.7-79.2-48.3-79.2c-48.3,0-55.7,37.7-55.7,76.7V599h-92.8V299.9h89.1v40.8
	h1.3c12.4-23.5,42.7-48.3,87.9-48.3c94,0,111.3,61.9,111.3,142.3V599H599z"/>
</svg>
