<?xml version="1.0" encoding="utf-8"?>
<!-- Generator: Adobe Illustrator 23.0.0, SVG Export Plug-In . SVG Version: 6.00 Build 0)  -->
<svg version="1.1" id="Calque_1" xmlns="http://www.w3.org/2000/svg" xmlns:xlink="http://www.w3.org/1999/xlink" x="0px" y="0px"
	 viewBox="0 0 750 750" style="enable-background:new 0 0 750 750;" xml:space="preserve">
<path d="M583,183H167c-26.5,0-48,21.5-48,48v288c0,26.5,21.5,48,48,48h416c26.5,0,48-21.5,48-48V231C631,204.5,609.5,183,583,183z
	 M583,231v40.8c-22.4,18.3-58.2,46.7-134.6,106.5c-16.8,13.2-50.2,45.1-73.4,44.7c-23.2,0.4-56.6-31.5-73.4-44.7
	c-76.4-59.8-112.2-88.2-134.6-106.5V231H583z M167,519V333.4c22.9,18.3,55.4,43.9,104.9,82.6c21.9,17.2,60.1,55.2,103.1,55
	c42.7,0.2,80.5-37.2,103.1-54.9c49.5-38.8,82-64.4,104.9-82.7V519H167z"/>
</svg>
